# xmcd
#
# Track frame offsets:
# 150
# 15040
# 29738
# 40493
# 51003
# 62583
# 78068
# 93720
# 108550
# 119633
# 134043
# 147015
# 162925
# 175393
# 188318
#
# Disc length: 2691 seconds
#
#
# Revision: 0
# Processed by: cddbd v1.5.2PL0 Copyright (c) Steve Scherf et al.
# Submitted via: FreeRIP 2.951 
#
DISCID=c80a810f
DTITLE=vaios - o melhor da musica fandangueira
DYEAR=1995
DGENRE=fandango
TTITLE0=de le fole - pedro neves
TTITLE1=não sei dançar - tchê babaridade
TTITLE2=bombachudo - grupo  rodeio
TTITLE3=marca velha - porca véia e os tropeiros
TTITLE4=bailezito - ivnir machado
TTITLE5=a guria do baile - pataço
TTITLE6=entrevero na sala - nardel silva
TTITLE7=estrada mato e rio - os troperitos
TTITLE8=mateando saudades - os charruas
TTITLE9=buggio do fole solto - som campeiro
TTITLE10=o filho da frida - os bombachudos
TTITLE11=herança morta - porca véia e grupo candeeiro
TTITLE12=fandango com oliveiras - os oliveiras
TTITLE13=encantados - os tahãs
TTITLE14=reboleando a bombacha - os caranchos
EXTD=oexpert@hotmail.com
EXTT0=
EXTT1=
EXTT2=
EXTT3=
EXTT4=
EXTT5=
EXTT6=
EXTT7=
EXTT8=
EXTT9=
EXTT10=
EXTT11=
EXTT12=
EXTT13=
EXTT14=
PLAYORDER=
